<svg width="0" height="0" class="hidden">
  <symbol xmlns="http://www.w3.org/2000/svg" fill="currentColor" viewBox="0 0 16 16" id="arrow-through-heart-fill">
    <path fill-rule="evenodd" d="M2.854 15.854A.5.5 0 0 1 2 15.5V14H.5a.5.5 0 0 1-.354-.854l1.5-1.5A.5.5 0 0 1 2 11.5h1.793l3.103-3.104a.5.5 0 1 1 .708.708L4.5 12.207V14a.5.5 0 0 1-.146.354zM16 3.5a.5.5 0 0 1-.854.354L14 2.707l-1.006 1.006c.236.248.44.531.6.845.562 1.096.585 2.517-.213 4.092-.793 1.563-2.395 3.288-5.105 5.08L8 13.912l-.276-.182A24 24 0 0 1 5.8 12.323L8.31 9.81a1.5 1.5 0 0 0-2.122-2.122L3.657 10.22a9 9 0 0 1-1.039-1.57c-.798-1.576-.775-2.997-.213-4.093C3.426 2.565 6.18 1.809 8 3.233c1.25-.98 2.944-.928 4.212-.152L13.292 2 12.147.854A.5.5 0 0 1 12.5 0h3a.5.5 0 0 1 .5.5z"></path>
  </symbol>
  <symbol xmlns="http://www.w3.org/2000/svg" fill="currentColor" viewBox="0 0 16 16" id="backpack-fill">
    <path d="M5 13v-3h4v.5a.5.5 0 0 0 1 0V10h1v3z"></path>
    <path d="M6 2v.341C3.67 3.165 2 5.388 2 8v5.5A2.5 2.5 0 0 0 4.5 16h7a2.5 2.5 0 0 0 2.5-2.5V8a6 6 0 0 0-4-5.659V2a2 2 0 1 0-4 0m2-1a1 1 0 0 1 1 1v.083a6 6 0 0 0-2 0V2a1 1 0 0 1 1-1m0 3a4 4 0 0 1 3.96 3.43.5.5 0 1 1-.99.14 3 3 0 0 0-5.94 0 .5.5 0 1 1-.99-.14A4 4 0 0 1 8 4M4.5 9h7a.5.5 0 0 1 .5.5v4a.5.5 0 0 1-.5.5h-7a.5.5 0 0 1-.5-.5v-4a.5.5 0 0 1 .5-.5"></path>
  </symbol>
  <symbol xmlns="http://www.w3.org/2000/svg" fill="currentColor" viewBox="0 0 16 16" id="apple">
    <path d="M11.182.008C11.148-.03 9.923.023 8.857 1.18c-1.066 1.156-.902 2.482-.878 2.516s1.52.087 2.475-1.258.762-2.391.728-2.43m3.314 11.733c-.048-.096-2.325-1.234-2.113-3.422s1.675-2.789 1.698-2.854-.597-.79-1.254-1.157a3.7 3.7 0 0 0-1.563-.434c-.108-.003-.483-.095-1.254.116-.508.139-1.653.589-1.968.607-.316.018-1.256-.522-2.267-.665-.647-.125-1.333.131-1.824.328-.49.196-1.422.754-2.074 2.237-.652 1.482-.311 3.83-.067 4.56s.625 1.924 1.273 2.796c.576.984 1.34 1.667 1.659 1.899s1.219.386 1.843.067c.502-.308 1.408-.485 1.766-.472.357.013 1.061.154 1.782.539.571.197 1.111.115 1.652-.105.541-.221 1.324-1.059 2.238-2.758q.52-1.185.473-1.282"></path>
    <path d="M11.182.008C11.148-.03 9.923.023 8.857 1.18c-1.066 1.156-.902 2.482-.878 2.516s1.52.087 2.475-1.258.762-2.391.728-2.43m3.314 11.733c-.048-.096-2.325-1.234-2.113-3.422s1.675-2.789 1.698-2.854-.597-.79-1.254-1.157a3.7 3.7 0 0 0-1.563-.434c-.108-.003-.483-.095-1.254.116-.508.139-1.653.589-1.968.607-.316.018-1.256-.522-2.267-.665-.647-.125-1.333.131-1.824.328-.49.196-1.422.754-2.074 2.237-.652 1.482-.311 3.83-.067 4.56s.625 1.924 1.273 2.796c.576.984 1.34 1.667 1.659 1.899s1.219.386 1.843.067c.502-.308 1.408-.485 1.766-.472.357.013 1.061.154 1.782.539.571.197 1.111.115 1.652-.105.541-.221 1.324-1.059 2.238-2.758q.52-1.185.473-1.282"></path>
  </symbol>
</svg>